<svg xmlns="http://www.w3.org/2000/svg" width="70.8" height="70.8" viewBox="0 0 70.8 70.8">
  <g id="consultation" transform="translate(0.4 0.4)">
    <path id="Path_51" data-name="Path 51" d="M200.014,18.472l8.428-7.024h11.035V0H192V11.449h8.014ZM194.29,9.159V2.29h22.9V9.159h-9.573l-5.31,4.425V9.159Zm0,0" transform="translate(-165.144 0)" fill="#444" stroke="#444" stroke-width="0.8"/>
    <path id="Path_52" data-name="Path 52" d="M224,32h2.29v2.29H224Zm0,0" transform="translate(-192.402 -27.421)" fill="#444" stroke="#444" stroke-width="0.8"/>
    <path id="Path_53" data-name="Path 53" d="M256,32h9.159v2.29H256Zm0,0" transform="translate(-219.946 -27.421)" fill="#444" stroke="#444" stroke-width="0.8"/>
    <path id="Path_54" data-name="Path 54" d="M336,32h2.29v2.29H336Zm0,0" transform="translate(-288.603 -27.421)" fill="#444" stroke="#444" stroke-width="0.8"/>
    <path id="Path_55" data-name="Path 55" d="M57.473,170.579l-.913-9.1a7.884,7.884,0,0,0,6.666-7.761V139.107H58.709v-1.553a4.041,4.041,0,0,0-2.2-3.6,6.7,6.7,0,0,0,2.2-4.959v-2.248a6.774,6.774,0,0,0-13.548,0v2.248a6.751,6.751,0,0,0,4.463,6.331l-6.06,6.033H37.233a4.512,4.512,0,0,0-3.25-4.028l-4.628-1.315V134a6.708,6.708,0,0,0,2.258-5.013v-2.248a6.774,6.774,0,0,0-13.548,0v2.248A6.711,6.711,0,0,0,20.322,134v2.009l-4.628,1.315a4.516,4.516,0,0,0-3.275,4.323v4.2H7.9V152.6h2.258v17.984H0v2.248H70v-2.248ZM47.419,152.6v-5.154l8-7.964a3.514,3.514,0,0,0,1-2.156,1.822,1.822,0,0,1,.033.234v13.917a3.384,3.384,0,0,1-3.387,3.372H44.032V152.6Zm-3.387,8.992h5.753l.9,8.992H44.032Zm8.022,0H54.3l.9,8.992H52.957Zm6.656-10.116V141.355h2.258v12.364a5.639,5.639,0,0,1-5.645,5.62H44.032v-2.248h9.032A5.639,5.639,0,0,0,58.709,151.471Zm-11.29-22.479v-2.248a4.516,4.516,0,0,1,9.032,0v2.248a4.516,4.516,0,0,1-9.032,0ZM44.5,143.6l7.533-7.5a1.277,1.277,0,0,1,.9-.369,1.259,1.259,0,0,1,.9,2.151l-8,7.964H33.871a1.124,1.124,0,1,1,0-2.248Zm-24.177-16.86a4.516,4.516,0,0,1,9.032,0v2.248a4.516,4.516,0,0,1-9.032,0Zm4.516,8.992a6.768,6.768,0,0,0,2.258-.393v1.207a2.887,2.887,0,0,1-2.258,1.434,2.887,2.887,0,0,1-2.258-1.434v-1.207A6.768,6.768,0,0,0,24.838,135.736Zm-10.161,5.916a2.26,2.26,0,0,1,1.637-2.162l4.651-1.323a4.922,4.922,0,0,0,3.873,2.065,4.92,4.92,0,0,0,3.873-2.066l4.651,1.323a2.243,2.243,0,0,1,1.589,1.866H33.871a3.384,3.384,0,0,0-3.387,3.372,3.312,3.312,0,0,0,.208,1.124H14.677ZM10.161,148.1h35v2.248h-35Zm2.258,8.992h3.387v-2.248H12.419V152.6H41.774v2.248H18.064v2.248h23.71v13.488H39.085l-2.258-4.5H17.366l-2.258,4.5H12.419ZM36.56,170.579H17.633l1.129-2.248H35.431Zm0,0" transform="translate(0 -102.827)" fill="#444" stroke="#444" stroke-width="0.8"/>
  </g>
</svg>
