<svg xmlns="http://www.w3.org/2000/svg" width="67.702" height="70.8" viewBox="0 0 67.702 70.8">
  <g id="stethoscope" transform="translate(-10.949 0.4)">
    <path id="Path_74" data-name="Path 74" d="M70.283,31.182a1.025,1.025,0,0,0-1.025,1.025V45.778c-.006,4.536-2.448,7.223-5.373,8.288.019-.327.03-.657.03-.989V36.091c0-.012,0-.023,0-.035s0-.024,0-.036,0-.019,0-.029,0-.006,0-.008c-.315-4.331-3.345-6.209-6.033-6.113a5.918,5.918,0,0,0-5.716,6.222V48.814a7.284,7.284,0,0,0,2.724,5.865,9.466,9.466,0,0,0,5.954,1.971h.007c.2,0,.394-.007.59-.018a14.861,14.861,0,0,1-29.293-3.555v-1.82a4.609,4.609,0,0,0,3.575-4.486V44.716A16.393,16.393,0,0,0,47.011,34.195l.013-.037L49.851,25.6a1,1,0,0,0,.033-.127,3.482,3.482,0,0,0-1.061-3.422,21.778,21.778,0,0,0,.581-2.716l1.414-9.367a5.762,5.762,0,0,0-1.408-4.645A7.539,7.539,0,0,0,44.8,2.812V2.2A2.2,2.2,0,0,0,42.6,0H41.222a3.588,3.588,0,0,0-3.585,3.583v.345a3.59,3.59,0,0,0,3.585,3.587H42.6a2.2,2.2,0,0,0,2.2-2.2V4.894a5.535,5.535,0,0,1,3.05,1.767,3.724,3.724,0,0,1,.938,3l-1.414,9.37a19.8,19.8,0,0,1-.459,2.216,3.262,3.262,0,0,0-3.138,1.672,1.017,1.017,0,0,0-.079.181l-2.1,6.463a13.928,13.928,0,0,1-8.63,2.738H29.259a13.915,13.915,0,0,1-8.634-2.742l-2.091-6.459a1.036,1.036,0,0,0-.079-.181,3.262,3.262,0,0,0-3.137-1.672,20.377,20.377,0,0,1-.464-2.22l-1.41-9.325a3.753,3.753,0,0,1,.951-3.037,5.586,5.586,0,0,1,3.111-1.783v.428a2.2,2.2,0,0,0,2.2,2.2h1.386a3.588,3.588,0,0,0,3.581-3.587V3.583A3.586,3.586,0,0,0,21.091,0H19.7a2.2,2.2,0,0,0-2.2,2.2v.608a7.588,7.588,0,0,0-4.665,2.526,5.79,5.79,0,0,0-1.423,4.682l1.41,9.325a22.366,22.366,0,0,0,.585,2.714,3.485,3.485,0,0,0-1.066,3.422,1.038,1.038,0,0,0,.033.128l2.827,8.553a1.025,1.025,0,1,0,1.946-.644l-2.8-8.485a1.362,1.362,0,0,1,.8-1.657,1.211,1.211,0,0,1,1.473.473L19.3,32.136l.005.017a12.175,12.175,0,0,0,11.586,8.492l.223,0a12.165,12.165,0,0,0,11.806-8.491l.005-.015,2.688-8.291a1.211,1.211,0,0,1,1.473-.473,1.36,1.36,0,0,1,.794,1.656l-2.8,8.467a14.154,14.154,0,0,1-13.236,9.666c-.234,0-1.021,0-1.147,0a13.814,13.814,0,0,1-11.514-5.815,1.025,1.025,0,1,0-1.663,1.2,15.806,15.806,0,0,0,8.993,6.169v2.056a4.609,4.609,0,0,0,3.575,4.486v1.82a16.91,16.91,0,0,0,33.514,3.215,10.386,10.386,0,0,0,4.343-2.308,10.626,10.626,0,0,0,3.357-8.2h0V32.207a1.025,1.025,0,0,0-1.025-1.025ZM42.753,5.315a.153.153,0,0,1-.149.149H41.222a1.537,1.537,0,0,1-1.535-1.536V3.583a1.536,1.536,0,0,1,1.535-1.532H42.6a.151.151,0,0,1,.149.149ZM19.556,2.2a.153.153,0,0,1,.149-.149h1.386a1.534,1.534,0,0,1,1.531,1.532v.345a1.536,1.536,0,0,1-1.531,1.536H19.7a.157.157,0,0,1-.149-.149ZM31.137,38.592H31.1a10.067,10.067,0,0,1-9.382-5.946,16.754,16.754,0,0,0,7.543,1.71h3.718a16.761,16.761,0,0,0,7.539-1.709A10.055,10.055,0,0,1,31.137,38.592Zm-2.57,8.179V45.1a16.723,16.723,0,0,0,1.982.118h1.135a16.769,16.769,0,0,0,1.982-.118v1.675a2.55,2.55,0,1,1-5.1,0Zm33.3,6.305q0,.744-.073,1.469a8.963,8.963,0,0,1-.947.052H60.84c-3.194,0-6.631-1.813-6.631-5.785V36.091a3.88,3.88,0,0,1,3.736-4.172c1.666-.056,3.688,1.014,3.919,4.215V53.077Z" transform="translate(0 0)" fill="#444" stroke="#444" stroke-width="0.8"/>
    <path id="Path_75" data-name="Path 75" d="M392.652,11.934a7.973,7.973,0,0,0-1.031,15.879v10.42a1.031,1.031,0,1,0,2.063,0V27.813a7.973,7.973,0,0,0-1.031-15.879Zm0,13.885a5.911,5.911,0,1,1,5.911-5.911A5.918,5.918,0,0,1,392.652,25.819Z" transform="translate(-322.375 -10.293)" fill="#444" stroke="#444" stroke-width="0.8"/>
    <path id="Path_76" data-name="Path 76" d="M421.01,44.816a3.452,3.452,0,1,0,3.452,3.452A3.456,3.456,0,0,0,421.01,44.816Zm0,4.842a1.389,1.389,0,1,1,1.389-1.389A1.391,1.391,0,0,1,421.01,49.658Z" transform="translate(-350.734 -38.653)" fill="#444" stroke="#444" stroke-width="0.8"/>
  </g>
</svg>
