<svg xmlns="http://www.w3.org/2000/svg" width="69.975" height="70" viewBox="0 0 69.975 70">
  <g id="service" transform="translate(-0.092)">
    <path id="Path_56" data-name="Path 56" d="M69.219,266.462a7.546,7.546,0,0,0-9.6-3.474c-2.635,1.011-5.856,2.247-9.362,3.225a8.309,8.309,0,0,0-.485-4.826,8.047,8.047,0,0,0-5.316-4.717,9.811,9.811,0,0,0-4.017-.235c-9.368,1.288-14.947-1.915-19.868-4.741-3.308-1.9-6.432-3.693-10.09-3.693a27.188,27.188,0,0,0-8.473,1.509,2.77,2.77,0,0,0-1.793,3.464,2.729,2.729,0,0,0,3.426,1.813,21.116,21.116,0,0,1,6.839-1.256c2.213,0,4.5,1.312,7.39,2.972,4.331,2.487,10.017,5.752,18.469,5.752a35.47,35.47,0,0,0,4.837-.34,4.522,4.522,0,0,1,1.811.082,2.67,2.67,0,0,1,1.774,3.538,3.553,3.553,0,0,1-2.122,1.774,19.006,19.006,0,0,1-6.046.875,28.4,28.4,0,0,1-7.371-.877,2.731,2.731,0,0,0-3.34,1.971,2.768,2.768,0,0,0,1.95,3.377,35.481,35.481,0,0,0,8.761,1.06v0c10.4-.045,19.295-3.376,24.966-5.552a2.132,2.132,0,0,1,2.83.906,2.075,2.075,0,0,1-.842,2.764c-6.863,3.707-14.826,7.137-26.529,7.137-10.418,0-20.014-4.065-26.229-7.475-4.4-2.414-7.71-1.909-8.515-1.731a2.641,2.641,0,0,0-2.186,2.709,2.75,2.75,0,0,0,2.734,2.765,4.918,4.918,0,0,0,.7-.093s1.818-.344,4.653,1.211c6.772,3.715,17.273,8.144,28.838,8.144a58.189,58.189,0,0,0,29.105-7.79A7.7,7.7,0,0,0,69.219,266.462Z" transform="translate(0 -214.494)" fill="#444"/>
    <path id="Path_57" data-name="Path 57" d="M170.473,27.122a2.764,2.764,0,0,0,3.783.99l2.476-1.449a12.719,12.719,0,0,0,6.509,3.722v2.792a2.765,2.765,0,0,0,5.529,0V30.384a12.716,12.716,0,0,0,6.4-3.607l2.28,1.334a2.765,2.765,0,1,0,2.793-4.772l-2.194-1.284a12.736,12.736,0,0,0,0-8.165l2.2-1.291a2.765,2.765,0,0,0-2.8-4.767l-2.271,1.335a12.717,12.717,0,0,0-6.4-3.611V2.765a2.765,2.765,0,1,0-5.529,0V5.556a12.719,12.719,0,0,0-6.513,3.726l-2.467-1.45a2.765,2.765,0,0,0-2.8,4.767l2.452,1.441a12.721,12.721,0,0,0,0,7.866l-2.449,1.433a2.765,2.765,0,0,0-.989,3.782ZM186,10.782a7.188,7.188,0,1,1-7.188,7.188A7.2,7.2,0,0,1,186,10.782Z" transform="translate(-146.966)" fill="#444"/>
  </g>
</svg>
