<svg xmlns="http://www.w3.org/2000/svg" width="70.801" height="70.8" viewBox="0 0 70.801 70.8">
  <g id="hiring" transform="translate(0.4 0.4)">
    <g id="Group_47" data-name="Group 47" transform="translate(42.048 5.59)">
      <g id="Group_46" data-name="Group 46">
        <path id="Path_43" data-name="Path 43" d="M322.342,40a10.335,10.335,0,0,0-7.127,17.825,1.38,1.38,0,0,0,.165.157,10.322,10.322,0,0,0,13.925,0,1.39,1.39,0,0,0,.165-.157A10.335,10.335,0,0,0,322.342,40Zm0,17.889a7.5,7.5,0,0,1-4.334-1.375,5.143,5.143,0,0,1,8.669,0A7.5,7.5,0,0,1,322.342,57.889ZM320.9,49.906V49.2a1.438,1.438,0,1,1,2.877,0v.709a1.438,1.438,0,1,1-2.877,0Zm7.754,4.56a7.869,7.869,0,0,0-2.749-2.283,4.206,4.206,0,0,0,.667-2.277V49.2a4.234,4.234,0,1,0-8.467,0v.709a4.207,4.207,0,0,0,.667,2.277,7.868,7.868,0,0,0-2.749,2.283,7.547,7.547,0,1,1,12.632,0Z" transform="translate(-312 -40)" fill="#444" stroke="#444" stroke-width="0.8"/>
      </g>
    </g>
    <g id="Group_49" data-name="Group 49">
      <g id="Group_48" data-name="Group 48">
        <path id="Path_44" data-name="Path 44" d="M68.541,52.98a5.285,5.285,0,0,0-6.738-.614l-.046.033-7.664,5.763a1.367,1.367,0,1,0,1.643,2.185L63.376,54.6a2.55,2.55,0,0,1,3.231.31,2.246,2.246,0,0,1-.174,3.334l-7,5.666a15.086,15.086,0,0,1-9.466,3.353H29.737a15.037,15.037,0,0,1-7.791-2.175L16.44,61.755v-17.3H26.984a5.431,5.431,0,0,1,3.865,1.6l7.273,7.307a5.433,5.433,0,0,0,3.867,1.6h5.364a2.048,2.048,0,0,1,0,4.1h-10.3a4.857,4.857,0,0,1-2.655-.787l-4.387-2.854-.016-.01a1.367,1.367,0,0,0-1.495,2.29l4.407,2.866a7.584,7.584,0,0,0,4.146,1.23h10.3a4.782,4.782,0,0,0,0-9.565H42.076l11.366-6.562H67.265A2.737,2.737,0,0,0,70,42.929V2.734A2.737,2.737,0,0,0,67.265,0H38.281a2.737,2.737,0,0,0-2.734,2.734v40.2a2.737,2.737,0,0,0,2.734,2.734h9.692L39.3,50.669h0l-6.519-6.55a8.149,8.149,0,0,0-5.8-2.4H16.44V39.306a2.737,2.737,0,0,0-2.734-2.734H1.367A1.367,1.367,0,0,0,0,37.939V68.632A1.367,1.367,0,0,0,1.367,70H13.706a2.737,2.737,0,0,0,2.734-2.734V64.952l4.089,2.477A17.772,17.772,0,0,0,29.737,70H49.972a17.828,17.828,0,0,0,11.187-3.962l7-5.666a4.981,4.981,0,0,0,.387-7.392Zm-30.26-10.05V2.734H67.265l0,40.195H38.281ZM13.706,67.265H2.734V39.306H13.706V43.08s0,0,0,0,0,0,0,0v19.37c0,.035,0,.069,0,.1v4.7Z" fill="#444" stroke="#444" stroke-width="0.8"/>
      </g>
    </g>
    <g id="Group_51" data-name="Group 51" transform="translate(16.366 6.34)">
      <g id="Group_50" data-name="Group 50">
        <path id="Path_45" data-name="Path 45" d="M136.368,46.063a1.4,1.4,0,0,0-1.909-.512l-12.581,7.264a2.8,2.8,0,0,0-1.023,3.818l12.21,21.149a1.4,1.4,0,1,0,2.421-1.4l-12.21-21.149,12.581-7.264A1.4,1.4,0,0,0,136.368,46.063Z" transform="translate(-120.481 -45.364)" fill="#444" stroke="#444" stroke-width="0.8"/>
      </g>
    </g>
    <g id="Group_53" data-name="Group 53" transform="translate(43.446 28.958)">
      <g id="Group_52" data-name="Group 52">
        <path id="Path_46" data-name="Path 46" d="M339.609,212H323.4a1.4,1.4,0,1,0,0,2.8h16.212a1.4,1.4,0,0,0,0-2.8Z" transform="translate(-322 -212)" fill="#444" stroke="#444" stroke-width="0.8"/>
      </g>
    </g>
    <g id="Group_55" data-name="Group 55" transform="translate(59.658 34.968)">
      <g id="Group_54" data-name="Group 54">
        <path id="Path_47" data-name="Path 47" d="M440.386,256.409a1.4,1.4,0,1,0,.41.988A1.408,1.408,0,0,0,440.386,256.409Z" transform="translate(-438 -256)" fill="#444" stroke="#444" stroke-width="0.8"/>
      </g>
    </g>
    <g id="Group_57" data-name="Group 57" transform="translate(43.802 34.968)">
      <g id="Group_56" data-name="Group 56">
        <path id="Path_48" data-name="Path 48" d="M333.78,256H323.4a1.4,1.4,0,0,0,0,2.8H333.78a1.4,1.4,0,0,0,0-2.8Z" transform="translate(-322 -256)" fill="#444" stroke="#444" stroke-width="0.8"/>
      </g>
    </g>
    <g id="Group_59" data-name="Group 59" transform="translate(7.005 50.241)">
      <g id="Group_58" data-name="Group 58">
        <path id="Path_49" data-name="Path 49" d="M51.523,368.547a1.4,1.4,0,0,0-1.4,1.4v5.467a1.4,1.4,0,1,0,2.8,0v-5.467A1.4,1.4,0,0,0,51.523,368.547Z" transform="translate(-50.125 -368.547)" fill="#444" stroke="#444" stroke-width="0.8"/>
      </g>
    </g>
    <g id="Group_61" data-name="Group 61" transform="translate(7.006 60.229)">
      <g id="Group_60" data-name="Group 60">
        <path id="Path_50" data-name="Path 50" d="M52.516,442.5a1.4,1.4,0,1,0,.408.988A1.411,1.411,0,0,0,52.516,442.5Z" transform="translate(-50.13 -442.09)" fill="#444" stroke="#444" stroke-width="0.8"/>
      </g>
    </g>
  </g>
</svg>
