<svg xmlns="http://www.w3.org/2000/svg" width="64.563" height="70" viewBox="0 0 64.563 70">
  <path id="creative-design" d="M84.334,18.831a13.817,13.817,0,0,0-13.8-13.8C64.25,5.1,59.11,4.135,54.155,9.041c-8.415,8.175-2.936,23.463,9.2,23.271,5.763,0,10.061.1,12.887,1.435,1.794.846,3.625,2.37,3.967,7.08v9.785a15.272,15.272,0,0,1-11.6,14.8,7.994,7.994,0,0,0,.791-3.476c0-.063,0-14.842,0-14.918-.528-12.766-18.721-12.765-19.249,0V48.4a9.635,9.635,0,0,0,9.624,9.624h1.581A3.923,3.923,0,0,1,65.28,61.9a4.01,4.01,0,0,1-4.006,3.962H33.681l6.851-8.04V0H19.771V57.818L30.152,70l.069-.081v.063H64.964a19.392,19.392,0,0,0,19.37-19.37ZM28.158,52.246H23.9V12.374h4.262Zm4.125-39.872h4.125V52.246H32.283Zm4.125-8.249V8.249H23.9V4.125ZM23.957,56.371H36.346l-6.194,7.27Zm37.4-2.475H59.781a5.506,5.506,0,0,1-5.5-5.5V47.022a5.5,5.5,0,0,1,11,0v7.9A7.994,7.994,0,0,0,61.362,53.9Zm18.848-22.5c-4.545-3.512-10.824-3.1-16.854-3.2a8.766,8.766,0,0,1-6.378-2.539A9.726,9.726,0,0,1,63.883,9.154h6.65a9.688,9.688,0,0,1,9.677,9.677Z" transform="translate(-19.771)" fill="#444"/>
</svg>
