<svg xmlns="http://www.w3.org/2000/svg" width="71.033" height="71.029" viewBox="0 0 71.033 71.029">
  <g id="airplane" transform="translate(0.501 0.029)">
    <path id="Path_67" data-name="Path 67" d="M135.619,43.525l1.978-1.977a3.194,3.194,0,0,0-4.03-4.915l-.417-1.4,2.141-2.141a3.192,3.192,0,0,0-4.2-4.786l-2.537-8.516c1.013-.976,1.984-1.925,2.9-2.84A33.747,33.747,0,0,0,137.481,9.1c2.122-4.107,1.234-6.3.115-7.422s-3.314-2.006-7.422.116a33.716,33.716,0,0,0-7.855,6.034c-.915.915-1.864,1.884-2.84,2.9l-8.517-2.537a3.191,3.191,0,0,0-4.785-4.2l-2.141,2.141-1.4-.417a3.194,3.194,0,0,0-4.915-4.03L95.745,3.651l-10.078-3a1.019,1.019,0,0,0-1.012.256L82.061,3.5a1.029,1.029,0,0,0,.119,1.543l25.428,18.612c-5.733,6.464-11.256,12.937-15.155,17.561l-7.48-2.877a1.019,1.019,0,0,0-1.086.23l-3.075,3.075a1.019,1.019,0,0,0,0,1.441L96.185,58.458a1.029,1.029,0,0,0,1.441,0l3.074-3.074a1.019,1.019,0,0,0,.23-1.087l-2.876-7.479c4.624-3.9,11.1-9.422,17.561-15.156l2.02,2.76a1.019,1.019,0,0,0,1.645-1.2L117.145,30.3c3.381-3.017,6.719-6.061,9.748-8.93l9.6,32.232-1.324,1.324L121.974,36.9a1.019,1.019,0,1,0-1.644,1.2l13.9,18.988a1.029,1.029,0,0,0,1.543.119l2.594-2.594a1.019,1.019,0,0,0,.256-1.012Zm-28-38.1a1.155,1.155,0,0,1,1.633,1.633l-.478.478-2.517-.75ZM99.164,3.115A1.155,1.155,0,0,1,100.8,4.748l-.314.314-2.517-.749ZM84.343,4.1l1.324-1.324,32.232,9.6c-2.869,3.029-5.913,6.368-8.93,9.748Zm.517,36.379,6.2,2.386c-1.556,1.853-2.75,3.287-3.454,4.136l-4.637-4.637Zm4.2,7.97c3.553-4.286,22.331-26.813,34.7-39.185A32.126,32.126,0,0,1,131.11,3.6c1.663-.86,3.889-1.641,5.045-.485s.374,3.382-.485,5.045a32.141,32.141,0,0,1-5.664,7.349c-12.371,12.371-34.9,31.149-39.184,34.7Zm9.733,5.962L96.906,56.3l-4.637-4.637c.848-.7,2.283-1.9,4.136-3.453Zm35.73-15.938a1.155,1.155,0,0,1,1.633,1.633l-1.2,1.2-.75-2.517Zm-2.306-8.455a1.155,1.155,0,1,1,1.633,1.633l-1.362,1.362-.75-2.517Zm0,0" transform="translate(-68.767)" fill="#444" stroke="#444" stroke-width="1"/>
    <path id="Path_68" data-name="Path 68" d="M395.478,433.292l-8.7,8.7a1.019,1.019,0,1,0,1.441,1.441l8.7-8.7a1.019,1.019,0,0,0-1.441-1.441Zm0,0" transform="translate(-333.429 -373.224)" fill="#444" stroke="#444" stroke-width="1"/>
    <path id="Path_69" data-name="Path 69" d="M385.608,402.528a1.019,1.019,0,0,0-1.441-1.441l-5.435,5.435a1.019,1.019,0,1,0,1.441,1.441Zm0,0" transform="translate(-326.616 -345.367)" fill="#444" stroke="#444" stroke-width="1"/>
    <path id="Path_70" data-name="Path 70" d="M371.9,362.27a1.019,1.019,0,0,0-1.441-1.441l-3.8,3.8a1.019,1.019,0,0,0,1.441,1.441Zm0,0" transform="translate(-316.21 -310.748)" fill="#444" stroke="#444" stroke-width="1"/>
    <path id="Path_71" data-name="Path 71" d="M10.435,50.855a1.02,1.02,0,0,0-1.441,0l-8.7,8.7a1.018,1.018,0,0,0,0,1.441,1.03,1.03,0,0,0,1.441,0l8.7-8.7a1.02,1.02,0,0,0,0-1.441Zm0,0" transform="translate(0 -43.299)" fill="#444" stroke="#444" stroke-width="1"/>
    <path id="Path_72" data-name="Path 72" d="M63.556,83.059a1.018,1.018,0,0,0-1.441,0l-5.435,5.435a1.019,1.019,0,1,0,1.441,1.441L63.556,84.5a1.019,1.019,0,0,0,0-1.441Zm0,0" transform="translate(-48.772 -70.997)" fill="#444" stroke="#444" stroke-width="1"/>
    <path id="Path_73" data-name="Path 73" d="M108.991,112.46a1.03,1.03,0,0,0,1.441,0l3.8-3.8a1.019,1.019,0,1,0-1.441-1.441l-3.8,3.8a1.02,1.02,0,0,0,0,1.441Zm0,0" transform="translate(-93.815 -91.849)" fill="#444" stroke="#444" stroke-width="1"/>
  </g>
</svg>
