<svg xmlns="http://www.w3.org/2000/svg" width="70" height="70" viewBox="0 0 70 70">
  <g id="tutor" transform="translate(-1 -1)">
    <path id="Path_77" data-name="Path 77" d="M71,49.548V40.516a10.17,10.17,0,0,0-6.561-9.491,7.9,7.9,0,1,0-9.267.145,20.158,20.158,0,0,0-3.394,1.324,11.9,11.9,0,0,1-5.287,1.248h-.33v-7.9H43.9V21.323H36a3.391,3.391,0,0,0-3.387,3.387V37.129H22.452V26.835A14.706,14.706,0,0,0,34.871,12.24V4.952a3.952,3.952,0,0,0-7.9,0v6.21a6.781,6.781,0,0,1-6.774,6.774h-.125a7.9,7.9,0,1,0-10.379.575A12.439,12.439,0,0,0,1,30.355v6.754a5.6,5.6,0,0,0,1.663,4,5.533,5.533,0,0,0,3.982,1.644V59.71a4.5,4.5,0,0,0,7.9,2.956,4.426,4.426,0,0,0,5.645.933V71h6.774V46.161H51.806v2.258H50.545a5.637,5.637,0,0,0-5.355,3.86l-4.465,13.4A4.04,4.04,0,0,0,44.559,71h.631a4.033,4.033,0,0,0,3.834-2.764l2.782-8.344V71h6.774V61.968H68.742A2.26,2.26,0,0,0,71,59.71V57.452a2.26,2.26,0,0,0-2.258-2.258h-.125A7.873,7.873,0,0,0,71,49.548ZM54.065,24.71a5.645,5.645,0,1,1,5.645,5.645A5.652,5.652,0,0,1,54.065,24.71ZM43.9,33.742H41.081a3.956,3.956,0,0,0-3.952,3.952,3.911,3.911,0,0,0,.4,1.694H36a1.129,1.129,0,0,1-1.129-1.129V27.889A3.349,3.349,0,0,0,36,28.1h7.9ZM36,23.581h5.645v2.258H36a1.129,1.129,0,1,1,0-2.258ZM29.226,11.161V4.952a1.694,1.694,0,0,1,3.387,0V12.24A12.466,12.466,0,0,1,21.22,24.714l-1.026.094v8.726a3.382,3.382,0,0,1-2.258-3.179V20.194h2.258A9.043,9.043,0,0,0,29.226,11.161ZM8.9,12.29a5.645,5.645,0,1,1,5.645,5.645A5.652,5.652,0,0,1,8.9,12.29ZM4.256,39.509a3.358,3.358,0,0,1-1-2.4V30.355a10.172,10.172,0,0,1,7.9-9.9v9.9A3.382,3.382,0,0,1,8.9,33.534V26.968H6.645V40.5a3.362,3.362,0,0,1-2.389-.987ZM17.935,61.968a2.26,2.26,0,0,1-2.258-2.258V38.258H13.419V59.71a2.258,2.258,0,0,1-4.516,0V35.886a5.655,5.655,0,0,0,4.516-5.531V20.194h2.258V30.355a5.656,5.656,0,0,0,4.516,5.531V59.71A2.26,2.26,0,0,1,17.935,61.968Zm6.774,6.774H22.452V46.161H24.71ZM26.968,43.9H22.452V39.387H32.821A3.382,3.382,0,0,0,36,41.645H49.878a14.16,14.16,0,0,0,6.3-1.486l.148-.075V43.9H26.968ZM50.479,56.737l-3.6,10.786a1.78,1.78,0,0,1-1.691,1.219h-.631a1.785,1.785,0,0,1-1.694-2.35l4.465-13.4a3.385,3.385,0,0,1,3.214-2.317h1.261v4.684A2.242,2.242,0,0,0,50.479,56.737Zm5.844,12H54.065V46.161h2.258V68.742Zm12.419-11.29V59.71H58.581V57.452H68.742ZM58.581,55.194V38.956l1.634-.817-1.01-2.02-4.04,2.02a11.873,11.873,0,0,1-5.286,1.249h-8.8a1.694,1.694,0,1,1,0-3.387h5.41a14.16,14.16,0,0,0,6.3-1.486,18.088,18.088,0,0,1,8.051-1.9,7.913,7.913,0,0,1,7.9,7.9v9.032A5.652,5.652,0,0,1,63.1,55.194Z" fill="#444"/>
    <path id="Path_78" data-name="Path 78" d="M38.4,14.611h1.8l2.6,2.6a2.738,2.738,0,0,0,4.674-1.936v-.665h9.074a3.407,3.407,0,0,0,3.4-3.4V4.4a3.407,3.407,0,0,0-3.4-3.4H38.4A3.407,3.407,0,0,0,35,4.4v6.806A3.407,3.407,0,0,0,38.4,14.611ZM37.269,4.4A1.135,1.135,0,0,1,38.4,3.269H56.551A1.135,1.135,0,0,1,57.686,4.4v6.806a1.135,1.135,0,0,1-1.134,1.134H45.209v2.933a.488.488,0,0,1-.8.332l-3.266-3.266H38.4a1.135,1.135,0,0,1-1.134-1.134Z" transform="translate(4.24)" fill="#444"/>
    <path id="Path_79" data-name="Path 79" d="M45,6h2.269V8.269H45Z" transform="translate(5.67 0.671)" fill="#444"/>
    <path id="Path_80" data-name="Path 80" d="M49,6h2.269V8.269H49Z" transform="translate(6.185 0.671)" fill="#444"/>
    <path id="Path_81" data-name="Path 81" d="M41,6h2.269V8.269H41Z" transform="translate(5.154 0.671)" fill="#444"/>
  </g>
</svg>
