<svg xmlns="http://www.w3.org/2000/svg" width="62.889" height="70" viewBox="0 0 62.889 70">
  <g id="champagne-glass" transform="translate(-0.001)">
    <path id="Path_58" data-name="Path 58" d="M28.625,40.3,15.453,37.713a1.36,1.36,0,0,0-1.442.659A67.658,67.658,0,0,0,7.14,57.306a33.631,33.631,0,0,0-.624,7.07,25.236,25.236,0,0,0,.633,5.305q.17.737.394,1.461c1.124,3.611,3.054,6.079,5.511,7.1L10.209,93.673l-6.127-1.2A3.372,3.372,0,0,0,.34,94.512a4.244,4.244,0,0,0-.211.774,6.136,6.136,0,0,0-.12.754A3.392,3.392,0,0,0,.681,98.3a3.35,3.35,0,0,0,2.025,1.27L17.651,102.5a3.4,3.4,0,0,0,3.413-1.421,3.228,3.228,0,0,0,.436-.939,5.914,5.914,0,0,0,.228-1.278,3.4,3.4,0,0,0-.675-2.19,3.364,3.364,0,0,0-2.026-1.272L12.887,94.2l2.846-15.437c2.509-.023,5.064-1.42,7.352-4.04.187-.214.366-.433.543-.656a26.3,26.3,0,0,0,4.117-7.745A34.583,34.583,0,0,0,29.01,61.6a67.824,67.824,0,0,0,.7-20.145,1.37,1.37,0,0,0-1.09-1.157ZM18.9,98.363a.732.732,0,0,1,.085.523,2.394,2.394,0,0,1-.114.507.619.619,0,0,1-.7.416L3.229,96.874a.624.624,0,0,1-.425-.316.978.978,0,0,1-.011-.68.923.923,0,0,1,.233-.561.622.622,0,0,1,.534-.152L18.5,98.1a.616.616,0,0,1,.393.262ZM15.912,40.6l11.209,2.2a66.757,66.757,0,0,1-.789,18.272c-.125.646-.271,1.281-.431,1.906H9.245a31.6,31.6,0,0,1,.573-5.149A66.764,66.764,0,0,1,15.912,40.6Zm7.982,27.9a20.506,20.506,0,0,1-2.532,4.021,9.345,9.345,0,0,1-4.5,3.327,4.339,4.339,0,0,1-2.289.016,5.763,5.763,0,0,1-3.242-2.8A15.507,15.507,0,0,1,9.5,67.437c-.084-.567-.146-1.138-.189-1.71H25.06A27.127,27.127,0,0,1,23.894,68.5Zm0,0" transform="translate(0 -32.566)" fill="#444"/>
    <path id="Path_59" data-name="Path 59" d="M168.257,103.278c.042,0,.084.006.126.006a1.365,1.365,0,0,0,1.357-1.241,66.39,66.39,0,0,0,.212-8.62,1.365,1.365,0,0,0-2.727.108,63.465,63.465,0,0,1-.2,8.264,1.364,1.364,0,0,0,1.235,1.483Zm0,0" transform="translate(-144.175 -79.505)" fill="#444"/>
    <path id="Path_60" data-name="Path 60" d="M267.167,95.621a5.176,5.176,0,0,0-.446-1.467,3.269,3.269,0,0,0-.847-1.01,3.343,3.343,0,0,0-2.725-.672l-6.134,1.2-2.993-15.44c5.26-2.2,7.834-10.969,5.9-20.929a67.678,67.678,0,0,0-6.871-18.934,1.362,1.362,0,0,0-1.442-.659L238.441,40.3a1.371,1.371,0,0,0-1.09,1.157,67.844,67.844,0,0,0,.7,20.145c1.931,9.96,7.592,17.111,13.288,17.161l2.993,15.44-6.133,1.2a3.414,3.414,0,0,0-2.621,2.553,4.351,4.351,0,0,0,.179,2.295,3.345,3.345,0,0,0,3.818,2.251l14.945-2.935a3.4,3.4,0,0,0,2.643-3.95ZM239.945,42.8l11.209-2.2a66.746,66.746,0,0,1,6.094,17.231c.07.359.132.716.188,1.072H240.36a67.975,67.975,0,0,1-.415-16.1Zm24.45,53.809a.611.611,0,0,1-.393.262L249.058,99.81a.623.623,0,0,1-.533-.151.937.937,0,0,1-.234-.563,1.063,1.063,0,0,1-.009-.636.623.623,0,0,1,.444-.357l14.944-2.936a.628.628,0,0,1,.7.416A1.239,1.239,0,0,1,264.395,96.613Zm-13.256-20.6a6.144,6.144,0,0,1-3.215-1.307,12.852,12.852,0,0,1-2.461-2.473,19.105,19.105,0,0,1-1.2-1.746,25.351,25.351,0,0,1-1.9-3.831,30.682,30.682,0,0,1-1.509-5h16.9a25.163,25.163,0,0,1-.512,7.5,16.382,16.382,0,0,1-.624,2.055c-.958,2.52-2.4,4.154-4.076,4.649a4.139,4.139,0,0,1-1.4.155Zm0,0" transform="translate(-204.337 -32.567)" fill="#444"/>
    <path id="Path_61" data-name="Path 61" d="M220.591,1.364a1.364,1.364,0,0,0-2.729,0V5.8a1.364,1.364,0,0,0,2.729,0Zm0,0" transform="translate(-188.068)" fill="#444"/>
    <path id="Path_62" data-name="Path 62" d="M175.236,7.21a1.364,1.364,0,0,0,2.333-1.416l-1.682-2.769a1.364,1.364,0,1,0-2.332,1.417Zm0,0" transform="translate(-149.643 -2.046)" fill="#444"/>
    <path id="Path_63" data-name="Path 63" d="M252.643,7.667a1.363,1.363,0,0,0,1.874-.458L256.2,4.44a1.364,1.364,0,1,0-2.332-1.417l-1.681,2.769a1.364,1.364,0,0,0,.458,1.874Zm0,0" transform="translate(-217.519 -2.046)" fill="#444"/>
    <path id="Path_64" data-name="Path 64" d="M334.21,113.384q.779,2.134,1.4,4.322c.162.577.252,1.183.807,1.518a1.364,1.364,0,0,0,2.021-1.522c-.179-.708-.391-1.409-.606-2.107q-.333-1.084-.706-2.155c-.123-.354-.234-.718-.381-1.062a1.361,1.361,0,0,0-.478-.584,1.364,1.364,0,0,0-2.057,1.59Zm0,0" transform="translate(-288.426 -96.292)" fill="#444"/>
    <path id="Path_65" data-name="Path 65" d="M164.068,195.327a1.37,1.37,0,1,1-1.37-1.37A1.37,1.37,0,0,1,164.068,195.327Zm0,0" transform="translate(-139.265 -167.433)" fill="#444"/>
    <path id="Path_66" data-name="Path 66" d="M321.689,75.855a1.37,1.37,0,1,1-1.37-1.37A1.37,1.37,0,0,1,321.689,75.855Zm0,0" transform="translate(-275.33 -64.362)" fill="#444"/>
  </g>
</svg>
