<svg xmlns="http://www.w3.org/2000/svg" width="21.236" height="13.862" viewBox="0 0 21.236 13.862">
  <g id="Group_117" data-name="Group 117" transform="translate(-359 -6162)">
    <path id="Path_87" data-name="Path 87" d="M89.068,168.693a6.933,6.933,0,0,1,6.676-6.919,7.111,7.111,0,0,1,5.056,1.707c-.575.622-1.16,1.237-1.785,1.813a5.008,5.008,0,0,0-4.162-.8,4.372,4.372,0,0,0-2.874,5.6,4.453,4.453,0,0,0,5.869,2.641,3.847,3.847,0,0,0,2.286-2.624c-1.345-.026-2.689-.01-4.034-.046,0-.787-.007-1.572,0-2.359,2.242,0,4.488-.01,6.733.01a7.74,7.74,0,0,1-1.425,5.542,7.016,7.016,0,0,1-7.59,1.992A6.935,6.935,0,0,1,89.068,168.693Z" transform="translate(269.937 6000.247)" fill="#fff"/>
    <path id="Path_88" data-name="Path 88" d="M332.61,222.1h2c0,.669.01,1.341.014,2.01.669.007,1.341.01,2.01.013v2l-2.01.01c-.007.672-.01,1.341-.014,2.014-.669,0-1.338,0-2,0-.006-.672-.006-1.341-.013-2.01-.669-.007-1.341-.01-2.01-.014v-2q1,0,2.01-.013C332.6,223.439,332.6,222.766,332.61,222.1Z" transform="translate(43.602 5943.946)" fill="#fff"/>
  </g>
</svg>
