<svg xmlns="http://www.w3.org/2000/svg" width="14.624" height="18" viewBox="0 0 14.624 18">
  <path id="pinterest" d="M9.807,0C4.873,0,2.25,3.162,2.25,6.609c0,1.6.893,3.593,2.324,4.225.408.184.354-.041.705-1.383A.319.319,0,0,0,5.2,9.138C3.158,6.773,4.8,1.912,9.515,1.912c6.82,0,5.546,9.437,1.187,9.437a1.609,1.609,0,0,1-1.7-1.973,21.371,21.371,0,0,0,.95-3.634c0-2.361-3.518-2.011-3.518,1.118A3.784,3.784,0,0,0,6.78,8.478S5.648,13.05,5.438,13.9a12.133,12.133,0,0,0,.083,3.989.119.119,0,0,0,.216.055A14.144,14.144,0,0,0,7.6,14.439c.14-.514.712-2.6.712-2.6a3.11,3.11,0,0,0,2.624,1.251c3.447,0,5.939-3.03,5.939-6.79C16.862,2.7,13.778,0,9.807,0Z" transform="translate(-2.25)" fill="#fff"/>
</svg>
